<?xml version="1.0" standalone="no"?>
<!DOCTYPE svg PUBLIC "-//W3C//DTD SVG 20010904//EN"
 "http://www.w3.org/TR/2001/REC-SVG-20010904/DTD/svg10.dtd">
<svg version="1.0" xmlns="http://www.w3.org/2000/svg"
 width="96.000000pt" height="96.000000pt" viewBox="0 0 96.000000 96.000000"
 preserveAspectRatio="xMidYMid meet">
<metadata>
Created by potrace 1.14, written by Peter Selinger 2001-2017
</metadata>
<g transform="translate(0.000000,96.000000) scale(0.100000,-0.100000)"
fill="#000000" stroke="none">
<path d="M70 861 l-25 -20 -3 -263 c-2 -144 0 -273 3 -285 10 -43 51 -53 210
-53 l145 0 0 -40 0 -40 -40 0 -40 0 0 -40 0 -40 160 0 160 0 0 40 0 40 -40 0
-40 0 0 40 0 40 145 0 c159 0 200 10 210 53 3 12 5 140 3 284 -3 236 -5 264
-21 280 -16 17 -49 18 -410 20 -375 3 -393 2 -417 -16z m770 -301 l0 -240
-360 0 -360 0 0 240 0 240 360 0 360 0 0 -240z"/>
<path d="M453 576 c-21 -83 -38 -155 -38 -160 0 -5 12 -13 28 -17 24 -6 28 -4
33 19 4 15 22 85 40 156 18 71 31 132 29 136 -3 4 -16 10 -29 12 -24 5 -25 1
-63 -146z"/>
<path d="M258 619 l-58 -59 60 -60 c62 -62 83 -72 94 -44 8 22 10 20 -29 58
-19 20 -35 40 -35 46 0 7 18 29 40 50 37 36 38 38 21 54 -10 9 -22 16 -27 15
-5 0 -35 -27 -66 -60z"/>
<path d="M613 673 c-23 -9 -14 -32 28 -74 l40 -40 -45 -43 -45 -42 21 -21 21
-21 58 59 c33 32 59 63 59 69 0 13 -106 120 -118 119 -4 0 -13 -3 -19 -6z"/>
</g>
</svg>
